<svg xmlns="http://www.w3.org/2000/svg" width="19.908" height="27.03" viewBox="0 0 19.908 27.03">
  <path id="_005-pagar-2" data-name="005-pagar-2" d="M84.884,0h-8.83a2.444,2.444,0,0,0-2.441,2.441V3.635l-6.2,6.658V27.03H77.37V23.3l3.347-3.347h4.167a2.444,2.444,0,0,0,2.441-2.441V2.441A2.444,2.444,0,0,0,84.884,0ZM75.2,2.441a.858.858,0,0,1,.857-.857h5.131V18.367H76.054a.858.858,0,0,1-.857-.857V15.477l2.561-2.561a4.03,4.03,0,0,0,0-5.7l-.133-.133A1.846,1.846,0,0,0,75.2,6.924V2.441Zm.588,20.2v2.8H69V10.916l4.611-4.955V8.486l-2.2,2.2,1.12,1.12,3.6-3.6a.261.261,0,0,1,.369,0l.133.133a2.446,2.446,0,0,1,0,3.459L73.613,14.82V17.51a2.444,2.444,0,0,0,2.441,2.441h2.423Zm9.956-5.132a.858.858,0,0,1-.857.857H82.769V1.584h2.115a.858.858,0,0,1,.857.857V17.51Z" transform="translate(-67.417)" fill="#1e1e36"/>
</svg>
