<svg xmlns="http://www.w3.org/2000/svg" width="22.205" height="21.554" viewBox="0 0 22.205 21.554">
  <path id="bx-hide" d="M13.1,20.841a13.049,13.049,0,0,0,2.884-.312l-1.951-1.951c-.3.023-.611.042-.934.042A9.267,9.267,0,0,1,4.3,13.07a9.6,9.6,0,0,1,1.674-2.55L4.425,8.968a11.81,11.81,0,0,0-2.367,3.751,1.1,1.1,0,0,0,0,.7A11.644,11.644,0,0,0,13.1,20.841ZM13.1,5.3A11.923,11.923,0,0,0,7.991,6.387L3.9,2.293l-1.57,1.57L22.309,23.847l1.57-1.57-3.685-3.685a12.1,12.1,0,0,0,3.953-5.17,1.1,1.1,0,0,0,0-.7A11.647,11.647,0,0,0,13.1,5.3Zm5.52,11.722-2.531-2.531a3.225,3.225,0,0,0,.342-1.419A3.353,3.353,0,0,0,13.1,9.739a3.2,3.2,0,0,0-1.418.343L9.677,8.075A10.28,10.28,0,0,1,13.1,7.519a9.267,9.267,0,0,1,8.8,5.551A9.5,9.5,0,0,1,18.622,17.02Z" transform="translate(-2 -2.293)" fill="#acb8c7"/>
</svg>
