<svg xmlns="http://www.w3.org/2000/svg" width="29.205" height="29.206" viewBox="0 0 29.205 29.206">
  <g id="Chat" transform="translate(0.75 0.75)">
    <path id="Combined_Shape" data-name="Combined Shape" d="M12.586,1.616a1.619,1.619,0,1,1,1.62,1.62A1.619,1.619,0,0,1,12.586,1.616Zm-6.292,0a1.618,1.618,0,1,1,1.618,1.62A1.619,1.619,0,0,1,6.294,1.616ZM0,1.616a1.619,1.619,0,1,1,1.618,1.62A1.619,1.619,0,0,1,0,1.616Z" transform="translate(6.271 12.545)" fill="#fff" stroke="#fff" stroke-width="1"/>
    <path id="Stroke_7" data-name="Stroke 7" d="M13.88,0A13.861,13.861,0,0,0,0,13.874,14.662,14.662,0,0,0,1.87,20.8a1.455,1.455,0,0,1,.1,1.25l-.928,3.108a.864.864,0,0,0,1.136,1.081l2.8-.831a2.35,2.35,0,0,1,2.064.5A13.849,13.849,0,1,0,13.88,0Z" fill="none" stroke="#fff" stroke-linecap="round" stroke-linejoin="round" stroke-miterlimit="10" stroke-width="1.5"/>
  </g>
</svg>
