<svg xmlns="http://www.w3.org/2000/svg" width="26.1" height="17.614" viewBox="0 0 26.1 17.614">
  <g id="Grupo_2845" data-name="Grupo 2845" transform="translate(-3.2 -9.786)">
    <path id="Trazado_6786" data-name="Trazado 6786" d="M28.8,10.6c-.3-.2-3.3-2-11,.5-7.6,2.5-13.1-.5-13.1-.6a.908.908,0,0,0-1,0,1.05,1.05,0,0,0-.5.9v13a1.02,1.02,0,0,0,.5.8,17.18,17.18,0,0,0,8.6,2.2,21.618,21.618,0,0,0,6.3-1c6.8-2.2,9.2-.8,9.2-.8a1.183,1.183,0,0,0,1,.1,1.05,1.05,0,0,0,.5-.9V11.4a1.374,1.374,0,0,0-.5-.8ZM27.2,23.4c-1.6-.4-4.6-.5-9.4,1.1a16.126,16.126,0,0,1-12.6-.7V13a19.322,19.322,0,0,0,13.3,0c5.2-1.7,7.8-1.3,8.8-.9V23.4Z" fill="#323253"/>
  </g>
</svg>
