<svg xmlns="http://www.w3.org/2000/svg" width="29.07" height="20.327" viewBox="0 0 29.07 20.327">
  <g id="Grupo_10" data-name="Grupo 10" transform="translate(0.75 0.75)">
    <path id="Uni贸n_2" data-name="Uni贸n 2" d="M4.318.035A4.021,4.021,0,0,0,0,4.306H0v.156s0,.009,0,.014,0,.01,0,.014v.135c0,1.255,0,5.828,0,6.833v.2A4.025,4.025,0,0,0,4.318,15.96l15.59-.035a4.021,4.021,0,0,0,4.313-4.27v-.017s0,0,0-.005V11.56c0-.773,0-6.025,0-7.072V4.473c0-.014,0-.027,0-.04V4.307h0A4.025,4.025,0,0,0,19.908,0Z" transform="translate(24.225 18.827) rotate(180)" fill="rgba(0,0,0,0)" stroke="#1e1e36" stroke-linecap="round" stroke-linejoin="round" stroke-miterlimit="10" stroke-width="1.5"/>
    <path id="Uni贸n_3" data-name="Uni贸n 3" d="M4.4.035A4.063,4.063,0,0,0,0,4.306H0v.156s0,.009,0,.014,0,.01,0,.014v.135c0,1.255,0,5.828,0,6.833v.2A4.065,4.065,0,0,0,4.4,15.96l15.9-.035a4.062,4.062,0,0,0,4.4-4.27v-.017s0,0,0-.005V11.56c0-.773,0-6.025,0-7.072V4.473c0-.014,0-.027,0-.04V4.307h0A4.066,4.066,0,0,0,20.3,0Z" transform="translate(27.57 15.96) rotate(180)" fill="#fff" stroke="#1e1e36" stroke-linecap="round" stroke-linejoin="round" stroke-miterlimit="10" stroke-width="1.5"/>
  </g>
</svg>
