<svg xmlns="http://www.w3.org/2000/svg" width="26" height="17.725" viewBox="0 0 26 17.725">
  <g id="Grupo_2850" data-name="Grupo 2850" transform="translate(-3.2 -4.375)">
    <path id="Trazado_6789" data-name="Trazado 6789" d="M28.8,6.6c-.3-.2-6.3-4-14.8-1.2-6.8,2.3-9.3.8-9.3.8a.908.908,0,0,0-1,0,1.05,1.05,0,0,0-.5.9V20.5a1.234,1.234,0,0,0,.4.8,7.317,7.317,0,0,0,3.8.8,23.794,23.794,0,0,0,7.2-1.3c7.6-2.5,13.1.5,13.1.6a.908.908,0,0,0,1,0,1.05,1.05,0,0,0,.5-.9V7.5A.975.975,0,0,0,28.8,6.6ZM27.2,18.9a19.322,19.322,0,0,0-13.3,0c-5.2,1.7-7.8,1.3-8.8.9V8.5c1.7.3,4.7.5,9.5-1.1a16.126,16.126,0,0,1,12.6.7Z" fill="#323253"/>
  </g>
</svg>
