<svg xmlns="http://www.w3.org/2000/svg" width="17" height="18" viewBox="0 0 17 18">
  <g id="Iconly_Bold_Paper_Negative" data-name="Iconly/Bold/Paper Negative" opacity="0.69">
    <g id="Paper_Negative" data-name="Paper Negative">
      <path id="Paper_Negative-2" data-name="Paper Negative" d="M4.674,18A4.7,4.7,0,0,1,0,13.29V4.51A4.5,4.5,0,0,1,4.465,0H9.752a.456.456,0,0,1,.455.46V3.68a3.349,3.349,0,0,0,3.308,3.34c.752,0,1.346.01,1.8.01.307,0,.812-.01,1.237-.01A.446.446,0,0,1,17,7.47v6.04A4.469,4.469,0,0,1,12.544,18ZM13.647,5.559a2.017,2.017,0,0,1-2-2.017V.906a.472.472,0,0,1,.814-.334l3.986,4.187a.477.477,0,0,1-.339.807h-.645C14.824,5.568,14.161,5.565,13.647,5.559Z" fill="#99a7bc"/>
    </g>
  </g>
</svg>
