<svg id="Iconly_Light-outline_Camera" data-name="Iconly/Light-outline/Camera" xmlns="http://www.w3.org/2000/svg" width="26.666" height="24" viewBox="0 0 26.666 24">
  <g id="Camera">
    <path id="Camera-2" data-name="Camera" d="M5.818,24A5.821,5.821,0,0,1,0,18.19V10.284A5.786,5.786,0,0,1,5.749,4.476l.1,0a.284.284,0,0,0,.22-.158L6.728,2.93l.514-1.052A3.233,3.233,0,0,1,10.2,0h6.276a3.231,3.231,0,0,1,2.954,1.877c.076.151.17.34.311.632l.859,1.8a.3.3,0,0,0,.282.163l.282.007a5.809,5.809,0,0,1,5.508,5.8V18.19A5.819,5.819,0,0,1,20.851,24ZM9.025,2.784c-.08.158-.178.355-.3.6L7.881,5.166A2.3,2.3,0,0,1,6.044,6.459l-.227.013A3.819,3.819,0,0,0,2,10.284V18.19A3.819,3.819,0,0,0,5.818,22H20.851a3.819,3.819,0,0,0,3.816-3.812V10.284a3.8,3.8,0,0,0-3.587-3.807l-.432-.014a2.293,2.293,0,0,1-1.863-1.3l-.931-1.954-.214-.428A1.234,1.234,0,0,0,16.464,2H10.21A1.24,1.24,0,0,0,9.025,2.784Zm4.308,16.223A5.248,5.248,0,0,1,8.1,13.772a5.15,5.15,0,0,1,1.516-3.687,5.21,5.21,0,0,1,3.722-1.558l.275.007a5.24,5.24,0,0,1-.273,10.472Zm-.209-8.474A3.266,3.266,0,0,0,10.1,13.765a3.235,3.235,0,1,0,3.242-3.24Z" fill="#fff"/>
  </g>
</svg>
