<svg xmlns="http://www.w3.org/2000/svg" width="16.301" height="20.3" viewBox="0 0 16.301 20.3">
  <g id="Iconly_Light-outline_Bookmark" data-name="Iconly/Light-outline/Bookmark" transform="translate(-3.85 -1.85)">
    <g id="Bookmark" transform="translate(4 2)">
      <path id="Bookmark-2" data-name="Bookmark" d="M13.586,19.8,7.974,16.663,2.384,19.8a1.588,1.588,0,0,1-.746.188A1.655,1.655,0,0,1,.384,19.4l-.1-.126-.094-.154A1.775,1.775,0,0,1,0,18.331V4.434A4.145,4.145,0,0,1,1.343,1.117,5.493,5.493,0,0,1,5.014,0h5.971C14.172,0,16,1.552,16,4.258V18.331a1.679,1.679,0,0,1-.477,1.18A1.61,1.61,0,0,1,14.36,20,1.719,1.719,0,0,1,13.586,19.8ZM8.644,15.389l5.6,3.128a.3.3,0,0,0,.126.035.214.214,0,0,0,.153-.065.227.227,0,0,0,.063-.157V4.258c0-1.865-1.212-2.81-3.6-2.81H5.014c-2.424,0-3.6.977-3.6,2.986V18.319a.354.354,0,0,0,0,.047c0,.021,0,.027,0,.028l-.005,0,.038.06a.233.233,0,0,0,.185.1.186.186,0,0,0,.086-.021l5.587-3.138a1.375,1.375,0,0,1,1.337,0Zm-4.1-7.625a.725.725,0,0,1-.1-1.441l.1-.007h6.867a.726.726,0,0,1,.1,1.442l-.1.006Z" fill="#1e1e36" stroke="#1e1e36" stroke-width="0.3"/>
    </g>
  </g>
</svg>
