<svg xmlns="http://www.w3.org/2000/svg" width="19.999" height="19.06" viewBox="0 0 19.999 19.06">
  <g id="Iconly_Light-outline_2_User" data-name="Iconly/Light-outline/2 User" transform="translate(-2 -2.5)">
    <g id="_2_User" data-name="2 User" transform="translate(2 2.5)">
      <path id="_2_User-2" data-name="2 User" d="M1.979,18.273a2.912,2.912,0,0,1,0-5.519,14.709,14.709,0,0,1,5.608-.8l.32,0a13.909,13.909,0,0,1,5.378.824,2.9,2.9,0,0,1,.08,5.4,12.947,12.947,0,0,1-5.145.868l-.633.005A14.848,14.848,0,0,1,1.979,18.273Zm1.06-4.294c-1.021.346-1.539.864-1.539,1.54,0,1.355,2.049,2.042,6.09,2.042a15.112,15.112,0,0,0,4.553-.522c1.021-.347,1.539-.865,1.539-1.54,0-1.355-2.049-2.042-6.092-2.042A15.1,15.1,0,0,0,3.039,13.979Zm13.379,1.978A.75.75,0,0,1,17,15.071c.769-.158,1.281-.415,1.418-.706a.819.819,0,0,0,0-.7c-.139-.293-.654-.549-1.43-.7a10.178,10.178,0,0,0-1.507-.217.75.75,0,0,1,.1-1.5,11.532,11.532,0,0,1,1.712.246,3.178,3.178,0,0,1,2.476,1.526,2.319,2.319,0,0,1,0,1.989A3.185,3.185,0,0,1,17.3,16.54a.75.75,0,0,1-.886-.583ZM3.956,8.77a5.157,5.157,0,1,1,3.635,1.5A5.106,5.106,0,0,1,3.956,8.77ZM5.017,2.56A3.658,3.658,0,1,0,7.591,1.5,3.615,3.615,0,0,0,5.017,2.56ZM13.27,8.413a.75.75,0,0,1,.75-.75,2.547,2.547,0,1,0,0-5.094.75.75,0,0,1,0-1.5,4.047,4.047,0,1,1,0,8.095A.75.75,0,0,1,13.27,8.413Z" transform="translate(0 0)" fill="#707992"/>
    </g>
  </g>
</svg>
