<svg xmlns="http://www.w3.org/2000/svg" width="20.313" height="19.361" viewBox="0 0 20.313 19.361">
  <g id="Iconly_Light_2_User" data-name="Iconly/Light/2 User" transform="translate(-1.85 -2.35)">
    <g id="_2_User" data-name="2 User" transform="translate(2 2.5)">
      <path id="Stroke_1" data-name="Stroke 1" d="M0,6.594A3.3,3.3,0,0,0,3.3,3.3,3.3,3.3,0,0,0,0,0" transform="translate(14.02 1.819)" fill="none" stroke="#8693a7" stroke-linecap="round" stroke-linejoin="round" stroke-miterlimit="10" stroke-width="1.8"/>
      <path id="Stroke_3" data-name="Stroke 3" d="M0,0A10.9,10.9,0,0,1,1.617.233,2.664,2.664,0,0,1,3.562,1.346a1.568,1.568,0,0,1,0,1.345A2.683,2.683,0,0,1,1.617,3.809" transform="translate(15.536 11.996)" fill="none" stroke="#8693a7" stroke-linecap="round" stroke-linejoin="round" stroke-miterlimit="10" stroke-width="1.8"/>
      <path id="Stroke_5" data-name="Stroke 5" d="M6.841,0c3.69,0,6.842.559,6.842,2.792S10.551,5.6,6.841,5.6C3.151,5.6,0,5.046,0,2.812S3.131,0,6.841,0Z" transform="translate(0.75 12.706)" fill="none" stroke="#8693a7" stroke-linecap="round" stroke-linejoin="round" stroke-miterlimit="10" stroke-width="1.8"/>
      <path id="Stroke_7" data-name="Stroke 7" d="M4.384,8.769A4.385,4.385,0,1,1,8.769,4.384,4.369,4.369,0,0,1,4.384,8.769Z" transform="translate(3.207 0.75)" fill="none" stroke="#8693a7" stroke-linecap="round" stroke-linejoin="round" stroke-miterlimit="10" stroke-width="1.8"/>
    </g>
  </g>
</svg>
