<svg xmlns="http://www.w3.org/2000/svg" width="19.332" height="19.332" viewBox="0 0 19.332 19.332">
  <g id="Iconly_Bulk_Image" data-name="Iconly/Bulk/Image" transform="translate(0.5 0.5)">
    <g id="Image" transform="translate(-0.002 -0.002)">
      <path id="Sustracción_13" data-name="Sustracción 13" d="M16332.3,1726.5h-7.946c-3.1,0-5.19-2.18-5.19-5.425v-7.487c0-3.242,2.086-5.42,5.19-5.42h7.946c3.107,0,5.2,2.178,5.2,5.42v7.487C16337.5,1724.321,16335.412,1726.5,16332.3,1726.5Zm-7.217-6.284c-.458,0-.927.339-1.569,1.134l-.1.123c-.4.495-.8.978-1.188,1.452a.7.7,0,0,0-.148.563.636.636,0,0,0,.3.442,3.787,3.787,0,0,0,2,.512h7.68a4.248,4.248,0,0,0,1.284-.189,3.354,3.354,0,0,0,2.062-1.878,3.307,3.307,0,0,0,.177-2.431,1.928,1.928,0,0,0-.463-.7l-.028-.027a9.8,9.8,0,0,0-1.678-1.4,1.332,1.332,0,0,0-.693-.209,1.7,1.7,0,0,0-1.246.717c-.148.2-.279.409-.418.631l-.014.023-.023.037-.086.138-.017.027a5.093,5.093,0,0,1-1.775,1.949,2.32,2.32,0,0,1-1.1.3,3.274,3.274,0,0,1-1.783-.7,5.341,5.341,0,0,0-.754-.435A1.049,1.049,0,0,0,16325.088,1720.217Zm.275-8.21a2.278,2.278,0,1,0,2.275,2.28A2.282,2.282,0,0,0,16325.363,1712.007Z" transform="translate(-16319.166 -1708.167)" fill="#b5bfcf" stroke="rgba(0,0,0,0)" stroke-miterlimit="10" stroke-width="1"/>
    </g>
  </g>
</svg>
