<svg id="Iconly_Light-outline_Setting" data-name="Iconly/Light-outline/Setting" xmlns="http://www.w3.org/2000/svg" width="20.401" height="21.473" viewBox="0 0 20.401 21.473">
  <g id="Setting">
    <path id="Setting-2" data-name="Setting" d="M9.536,21.473a2.921,2.921,0,0,1-.565-.055,2.835,2.835,0,0,1-1.461-.78,2.793,2.793,0,0,1-.339-.41,2.665,2.665,0,0,1-.248-.457,2.584,2.584,0,0,1-.2-1.008l-.01-.158a1.07,1.07,0,0,0-.02-.117,1.1,1.1,0,0,0-.033-.115,1.149,1.149,0,0,0-.046-.112,1.223,1.223,0,0,0-.059-.11,1.192,1.192,0,0,0-.513-.473,1.252,1.252,0,0,0-.226-.083l-.076-.017-.077-.012-.077-.008-.077,0a1.217,1.217,0,0,0-.167.012,1.269,1.269,0,0,0-.166.035,1.374,1.374,0,0,0-.164.057,1.533,1.533,0,0,0-.162.08l-.19.094a2.922,2.922,0,0,1-.279.106,2.849,2.849,0,0,1-.579.122,2.893,2.893,0,0,1-.3.015q-.1,0-.2-.007t-.194-.02q-.1-.013-.192-.033t-.189-.046a2.844,2.844,0,0,1-.978-.49,2.784,2.784,0,0,1-.4-.372,2.664,2.664,0,0,1-.313-.442L.362,15.508l-.091-.171a2.691,2.691,0,0,1-.263-1,2.734,2.734,0,0,1,.585-1.876,2.692,2.692,0,0,1,.783-.669l.114-.07a1.223,1.223,0,0,0,.223-.194,1.206,1.206,0,0,0,.166-.237,1.19,1.19,0,0,0,.1-.269,1.18,1.18,0,0,0,.036-.29,1.162,1.162,0,0,0-.044-.317,1.179,1.179,0,0,0-.127-.291,1.247,1.247,0,0,0-.2-.252,1.356,1.356,0,0,0-.271-.2l-.167-.1a2.791,2.791,0,0,1-.743-.742A2.7,2.7,0,0,1,.032,6.9a2.788,2.788,0,0,1,.355-.988l.7-1.123a2.766,2.766,0,0,1,.453-.577,2.837,2.837,0,0,1,.582-.437A2.867,2.867,0,0,1,3.531,3.4a2.8,2.8,0,0,1,1.046.2A2.763,2.763,0,0,1,4.9,3.76l.143.074a1.178,1.178,0,0,0,.225.075,1.156,1.156,0,0,0,.116.02,1.1,1.1,0,0,0,.116.008,1.25,1.25,0,0,0,.477-.093,1.214,1.214,0,0,0,.652-.64,1.239,1.239,0,0,0,.1-.475l.009-.208a2.693,2.693,0,0,1,.084-.475,2.736,2.736,0,0,1,.409-.866A2.749,2.749,0,0,1,7.974.466,2.867,2.867,0,0,1,9.536,0h1.326a2.852,2.852,0,0,1,.561.056A2.878,2.878,0,0,1,12.45.481a2.8,2.8,0,0,1,1.034,1.261,2.629,2.629,0,0,1,.152.509,2.344,2.344,0,0,1,.041.517l.009.158a1.081,1.081,0,0,0,.053.23,1.1,1.1,0,0,0,.045.11,1.148,1.148,0,0,0,.057.106,1.194,1.194,0,0,0,.142.19,1.23,1.23,0,0,0,.379.281,1.208,1.208,0,0,0,.225.081l.074.016.075.012.076.007.076,0a1.234,1.234,0,0,0,.169-.012,1.261,1.261,0,0,0,.167-.035,1.342,1.342,0,0,0,.164-.058,1.48,1.48,0,0,0,.161-.081l.176-.089a2.868,2.868,0,0,1,.287-.114,2.815,2.815,0,0,1,.6-.131,2.89,2.89,0,0,1,.309-.016,2.864,2.864,0,0,1,1.41.372,2.829,2.829,0,0,1,.581.435,2.754,2.754,0,0,1,.452.576l.658,1.119.013.024.012.023L20.057,6l.01.022.061.12a2.692,2.692,0,0,1,.254.945,2.754,2.754,0,0,1-.5,1.813,2.692,2.692,0,0,1-.7.681l-.276.17a1.219,1.219,0,0,0-.1.081,1.244,1.244,0,0,0-.351.516,1.159,1.159,0,0,0-.064.461,1.189,1.189,0,0,0,.039.234,1.165,1.165,0,0,0,.218.426,1.251,1.251,0,0,0,.172.175,1.417,1.417,0,0,0,.211.146l.179.113a2.777,2.777,0,0,1,.691.677,2.737,2.737,0,0,1,.244.415,2.721,2.721,0,0,1,.258.992,2.672,2.672,0,0,1-.148,1.064,2.779,2.779,0,0,1-.234.5L19.305,16.7l-.106.162a2.79,2.79,0,0,1-.456.5,2.835,2.835,0,0,1-.556.374,2.872,2.872,0,0,1-1.309.315,2.8,2.8,0,0,1-.706-.09,2.755,2.755,0,0,1-.336-.111,2.712,2.712,0,0,1-.318-.153l-.147-.074c-.037-.016-.075-.031-.114-.044s-.078-.024-.118-.033-.079-.016-.118-.021a1.127,1.127,0,0,0-.116-.009H14.9a1.244,1.244,0,0,0-.239.023,1.224,1.224,0,0,0-.436.177,1.238,1.238,0,0,0-.186.15,1.187,1.187,0,0,0-.155.187,1.164,1.164,0,0,0-.112.213,1.227,1.227,0,0,0-.068.235,1.376,1.376,0,0,0-.022.254l-.009.185a2.674,2.674,0,0,1-.284.994,2.8,2.8,0,0,1-.619.8,2.845,2.845,0,0,1-1.905.734Zm-3.311-5.38a2.829,2.829,0,0,1,.981.474,2.771,2.771,0,0,1,.4.365,2.662,2.662,0,0,1,.318.436,2.631,2.631,0,0,1,.135.253,2.577,2.577,0,0,1,.106.266,2.693,2.693,0,0,1,.077.28,2.991,2.991,0,0,1,.049.3l.021.38a1.186,1.186,0,0,0,.131.426,1.205,1.205,0,0,0,.27.341,1.233,1.233,0,0,0,.375.226,1.256,1.256,0,0,0,.447.082h1.326a1.266,1.266,0,0,0,.452-.083,1.251,1.251,0,0,0,.379-.228,1.189,1.189,0,0,0,.269-.341,1.113,1.113,0,0,0,.123-.422l.006-.117a2.678,2.678,0,0,1,.053-.541,2.751,2.751,0,0,1,.769-1.416,2.793,2.793,0,0,1,.914-.6,2.856,2.856,0,0,1,.528-.155,2.962,2.962,0,0,1,.559-.053h.015a2.864,2.864,0,0,1,.286.021,2.823,2.823,0,0,1,.282.05q.14.032.279.079t.278.108l.339.17a1.267,1.267,0,0,0,.12.045,1.254,1.254,0,0,0,.25.051,1.285,1.285,0,0,0,.42-.027,1.233,1.233,0,0,0,.269-.1,1.176,1.176,0,0,0,.235-.154,1.12,1.12,0,0,0,.19-.206l.078-.119.692-1.13a1.177,1.177,0,0,0,.1-.214,1.194,1.194,0,0,0,.064-.463,1.156,1.156,0,0,0-.038-.233,1.184,1.184,0,0,0-.071-.193,1.238,1.238,0,0,0-.1-.178,1.182,1.182,0,0,0-.128-.156,1.03,1.03,0,0,0-.149-.126l-.293-.182a2.807,2.807,0,0,1-.391-.312,2.766,2.766,0,0,1-.325-.372,2.716,2.716,0,0,1-.425-.885,2.675,2.675,0,0,1-.089-.535,2.727,2.727,0,0,1,.145-1.062,2.675,2.675,0,0,1,.228-.491,2.625,2.625,0,0,1,.169-.255,2.7,2.7,0,0,1,.2-.235,2.843,2.843,0,0,1,.228-.215,3.045,3.045,0,0,1,.256-.194l.172-.106a1.232,1.232,0,0,0,.345-.293,1.219,1.219,0,0,0,.21-.382,1.167,1.167,0,0,0,.06-.425,1.1,1.1,0,0,0-.106-.423l-.076-.143-.014-.03-.628-1.069a1.219,1.219,0,0,0-.2-.254,1.252,1.252,0,0,0-.873-.355q-.047,0-.094,0t-.093.011q-.046.007-.091.018t-.089.025l-.119.047-.111.055a2.863,2.863,0,0,1-1.424.38q-.089,0-.178-.005t-.177-.016q-.088-.011-.176-.027t-.174-.039A2.839,2.839,0,0,1,12.8,4.6a2.7,2.7,0,0,1-.325-.435,2.631,2.631,0,0,1-.135-.253,2.576,2.576,0,0,1-.106-.266,2.693,2.693,0,0,1-.077-.28,2.991,2.991,0,0,1-.049-.3l-.014-.271a1.17,1.17,0,0,0-.018-.241,1.2,1.2,0,0,0-.33-.635,1.223,1.223,0,0,0-.189-.155,1.253,1.253,0,0,0-.447-.185,1.236,1.236,0,0,0-.244-.024H9.536a1.259,1.259,0,0,0-.24.023,1.217,1.217,0,0,0-.759.486,1.251,1.251,0,0,0-.106.176,1.162,1.162,0,0,0-.073.187.984.984,0,0,0-.036.189l-.014.328a2.669,2.669,0,0,1-.28,1,2.786,2.786,0,0,1-.619.809,2.858,2.858,0,0,1-1.918.738A2.727,2.727,0,0,1,5.2,5.472a2.7,2.7,0,0,1-.287-.05,2.839,2.839,0,0,1-.285-.081q-.142-.048-.284-.113l-.207-.106a1.236,1.236,0,0,0-.931-.116,1.265,1.265,0,0,0-.555.318,1.247,1.247,0,0,0-.2.258L1.752,6.7a1.2,1.2,0,0,0-.141.859,1.172,1.172,0,0,0,.166.4,1.137,1.137,0,0,0,.31.316l.28.174a2.8,2.8,0,0,1,.521.444,2.749,2.749,0,0,1,.389.546,2.713,2.713,0,0,1,.328,1.294,2.665,2.665,0,0,1-.085.666,2.728,2.728,0,0,1-.244.62,2.812,2.812,0,0,1-.39.549,2.9,2.9,0,0,1-.522.452l-.167.1a1.23,1.23,0,0,0-.346.291,1.206,1.206,0,0,0-.21.38,1.152,1.152,0,0,0-.059.424,1.1,1.1,0,0,0,.107.422l.06.114L2.427,15.9a1.207,1.207,0,0,0,.311.36,1.225,1.225,0,0,0,.2.127,1.267,1.267,0,0,0,.227.088q.042.012.085.02l.086.014.087.009.087,0c.042,0,.083,0,.123-.006s.08-.01.119-.018a1.13,1.13,0,0,0,.114-.029,1.021,1.021,0,0,0,.107-.04l.117-.056A2.846,2.846,0,0,1,5.5,16q.092,0,.183.006t.182.018q.091.012.18.029T6.225,16.093Zm.4-5.356A3.429,3.429,0,0,1,6.9,9.372a3.518,3.518,0,0,1,.768-1.115,3.623,3.623,0,0,1,5.063,0A3.519,3.519,0,0,1,13.5,9.372a3.442,3.442,0,0,1,0,2.729,3.521,3.521,0,0,1-.768,1.116,3.622,3.622,0,0,1-5.063,0A3.52,3.52,0,0,1,6.9,12.1,3.43,3.43,0,0,1,6.623,10.737Zm1.587,0a1.91,1.91,0,0,0,.157.76,1.961,1.961,0,0,0,.428.621,2.017,2.017,0,0,0,2.82,0,1.962,1.962,0,0,0,.428-.621,1.916,1.916,0,0,0,0-1.52,1.96,1.96,0,0,0-.428-.621,2.018,2.018,0,0,0-2.82,0,1.959,1.959,0,0,0-.428.621A1.909,1.909,0,0,0,8.209,10.737Z" fill="#323253"/>
  </g>
</svg>
