<svg xmlns="http://www.w3.org/2000/svg" width="26.041" height="19.288" viewBox="0 0 26.041 19.288">
  <g id="Iconly_Light_Video" data-name="Iconly/Light/Video" transform="translate(-2.544 -6.032)">
    <g id="Video" transform="translate(3.294 6.782)">
      <path id="Stroke_1" data-name="Stroke 1" d="M17.135,13.395a4.227,4.227,0,0,1-4.56,4.393H4.545A4.217,4.217,0,0,1,0,13.395V4.4A4.23,4.23,0,0,1,4.56,0h8.016a4.236,4.236,0,0,1,4.56,4.4Z" transform="translate(0)" fill="none" stroke="#fff" stroke-linecap="round" stroke-linejoin="round" stroke-miterlimit="10" stroke-width="1.5"/>
      <path id="Stroke_3" data-name="Stroke 3" d="M0,4.627,5.292.295a1.3,1.3,0,0,1,2.114,1v8.876a1.3,1.3,0,0,1-2.114,1L0,6.846" transform="translate(17.135 3.157)" fill="none" stroke="#fff" stroke-linecap="round" stroke-linejoin="round" stroke-miterlimit="10" stroke-width="1.5"/>
    </g>
  </g>
</svg>
