<svg xmlns="http://www.w3.org/2000/svg" width="18.202" height="27.349" viewBox="0 0 18.202 27.349">
  <g id="Iconly_Light_Document" data-name="Iconly/Light/Document" transform="translate(0.751 0.75)">
    <g id="Document" transform="translate(-0.251 -0.75)">
      <path id="Stroke_4" data-name="Stroke 4" d="M12.158,0,4.469,0A4.251,4.251,0,0,0,0,4.607L-.037,21.242a4.254,4.254,0,0,0,4.506,4.607l7.689,0a4.252,4.252,0,0,0,4.47-4.6l.037-16.635A4.255,4.255,0,0,0,12.158,0Z" transform="translate(0.288 0.75)" fill="none" stroke="#1e1e36" stroke-linecap="round" stroke-linejoin="round" stroke-miterlimit="10" stroke-width="1.5"/>
      <g id="Rectángulo_2301" data-name="Rectángulo 2301" transform="translate(4.751 0.75)" fill="#fff" stroke="#1e1e36" stroke-width="1.5">
        <path d="M0,0H8A0,0,0,0,1,8,0V2A2,2,0,0,1,6,4H2A2,2,0,0,1,0,2V0A0,0,0,0,1,0,0Z" stroke="none"/>
        <path d="M1.5.75h5a.75.75,0,0,1,.75.75V2A1.25,1.25,0,0,1,6,3.25H2A1.25,1.25,0,0,1,.75,2V1.5A.75.75,0,0,1,1.5.75Z" fill="none"/>
      </g>
    </g>
  </g>
</svg>
