<svg id="Icons_Multimedia_camera-plus" data-name="Icons/Multimedia/camera-plus" xmlns="http://www.w3.org/2000/svg" width="29.333" height="25.4" viewBox="0 0 29.333 25.4">
  <path id="camera-plus" d="M22.667,25.4H4a4,4,0,0,1-4-4V10.733a4,4,0,0,1,4-4H5.707L6.133,5.4A4,4,0,0,1,9.92,2.666h7.412a1.333,1.333,0,1,1,0,2.666H9.986A1.335,1.335,0,0,0,8.72,6.24L8,8.426a1.332,1.332,0,0,1-1.263.909l-.07,0H4a1.335,1.335,0,0,0-1.333,1.333V21.334A1.335,1.335,0,0,0,4,22.667H22.667A1.335,1.335,0,0,0,24,21.334V12a1.334,1.334,0,1,1,2.666.067V21.4A4,4,0,0,1,22.667,25.4ZM13.333,20a5.333,5.333,0,1,1,5.334-5.334A5.339,5.339,0,0,1,13.333,20Zm0-8A2.666,2.666,0,1,0,16,14.666,2.669,2.669,0,0,0,13.333,12Zm12-4A1.335,1.335,0,0,1,24,6.667V5.333H22.667a1.333,1.333,0,1,1,0-2.666H24V1.333a1.333,1.333,0,0,1,2.666,0V2.666H28a1.333,1.333,0,1,1,0,2.666H26.666V6.667A1.335,1.335,0,0,1,25.333,8Z" transform="translate(0)" fill="#323253"/>
</svg>
