<svg xmlns="http://www.w3.org/2000/svg" width="22.5" height="23.104" viewBox="0 0 22.5 23.104">
  <g id="Iconly_Light-outline_Logout" data-name="Iconly/Light-outline/Logout" transform="translate(-2.274 25.379) rotate(-90)">
    <g id="Logout" transform="translate(2.275 2.274)">
      <path id="Logout-2" data-name="Logout" d="M4.989,22.5A4.99,4.99,0,0,1,.005,17.745L0,17.51V4.99A4.99,4.99,0,0,1,4.754.005L4.989,0h5.484a4.99,4.99,0,0,1,4.985,4.755l.005.235V6.039a.844.844,0,0,1-1.68.115l-.008-.115V4.99a3.3,3.3,0,0,0-3.107-3.3l-.194-.005H4.989A3.3,3.3,0,0,0,1.693,4.8l-.005.194V17.51a3.3,3.3,0,0,0,3.106,3.3l.194.006h5.495a3.291,3.291,0,0,0,3.286-3.1l.005-.193V16.462a.844.844,0,0,1,1.681-.114l.007.114v1.061a4.979,4.979,0,0,1-4.736,4.971l-.242.005Zm13.38-7.374a.844.844,0,0,1-.079-1.1l.081-.1,1.845-1.839H8.715a.844.844,0,0,1-.114-1.68l.114-.007h11.5L18.372,8.569a.844.844,0,0,1-.085-1.1l.082-.1a.845.845,0,0,1,1.1-.084l.094.081,3.295,3.279a.84.84,0,0,1,.241.49h0l0,.019v0l0,.02h0q0,.032,0,.064h0v0c0,.006,0,.011,0,.017v0s0,.009,0,.014v.053a.839.839,0,0,1-.082.283v0l-.007.014L23,11.651l0,0-.009.015h0l-.009.015h0l-.01.015h0l-.009.014,0,0-.008.012,0,0-.008.011,0,.005,0,0h0a.848.848,0,0,1-.1.114l-3.275,3.26a.843.843,0,0,1-1.193,0Z" transform="translate(0)" fill="#fff"/>
    </g>
  </g>
</svg>
