<svg xmlns="http://www.w3.org/2000/svg" width="21.801" height="21.8" viewBox="0 0 21.801 21.8">
  <g id="Iconly_Light_Game" data-name="Iconly/Light/Game" transform="translate(-1.1 -1.1)">
    <g id="Game" transform="translate(2 2)">
      <path id="Stroke_1" data-name="Stroke 1" d="M.53,0V3.745" transform="translate(6.318 10.314)" fill="none" stroke="#fff" stroke-linecap="round" stroke-linejoin="round" stroke-miterlimit="10" stroke-width="1.8"/>
      <path id="Stroke_2" data-name="Stroke 2" d="M3.821.519H0" transform="translate(4.938 11.667)" fill="none" stroke="#fff" stroke-linecap="round" stroke-linejoin="round" stroke-miterlimit="10" stroke-width="1.8"/>
      <path id="Stroke_3" data-name="Stroke 3" d="M.583.519H.476" transform="translate(12.783 9.909)" fill="none" stroke="#fff" stroke-linecap="round" stroke-linejoin="round" stroke-miterlimit="10" stroke-width="1.8"/>
      <path id="Stroke_4" data-name="Stroke 4" d="M.583.519H.476" transform="translate(14.596 13.483)" fill="none" stroke="#fff" stroke-linecap="round" stroke-linejoin="round" stroke-miterlimit="10" stroke-width="1.8"/>
      <path id="Stroke_5" data-name="Stroke 5" d="M0,0H0A1.355,1.355,0,0,0,1.368,1.341H2.424A2.1,2.1,0,0,1,4.54,3.413v.675" transform="translate(6.072 0)" fill="none" stroke="#fff" stroke-linecap="round" stroke-linejoin="round" stroke-miterlimit="10" stroke-width="1.8"/>
      <path id="Stroke_7" data-name="Stroke 7" d="M14.428,15.589q-4.508.076-8.856,0A5.34,5.34,0,0,1,0,10.138V5.488A5.34,5.34,0,0,1,5.573.037q4.374-.075,8.856,0A5.34,5.34,0,0,1,20,5.488v4.65A5.339,5.339,0,0,1,14.428,15.589Z" transform="translate(0 4.373)" fill="none" stroke="#fff" stroke-linecap="round" stroke-linejoin="round" stroke-miterlimit="10" stroke-width="1.8"/>
    </g>
  </g>
</svg>
