<svg xmlns="http://www.w3.org/2000/svg" width="22.333" height="17.255" viewBox="0 0 22.333 17.255">
  <g id="Iconly_Light_3_User" data-name="Iconly/Light/3 User" transform="translate(-0.775 -3.287)">
    <g id="_3_User" data-name="3 User" transform="translate(1.688 4.188)">
      <path id="Stroke_1" data-name="Stroke 1" d="M0,5.8A2.9,2.9,0,1,0,0,0" transform="translate(15.907 0.942)" fill="none" stroke="#8693a7" stroke-linecap="round" stroke-linejoin="round" stroke-miterlimit="10" stroke-width="1.8"/>
      <path id="Stroke_3" data-name="Stroke 3" d="M0,0A9.435,9.435,0,0,1,1.423.206a2.337,2.337,0,0,1,1.712.978,1.381,1.381,0,0,1,0,1.184,2.361,2.361,0,0,1-1.712.984" transform="translate(17.241 9.897)" fill="none" stroke="#8693a7" stroke-linecap="round" stroke-linejoin="round" stroke-miterlimit="10" stroke-width="1.8"/>
      <path id="Stroke_5" data-name="Stroke 5" d="M2.9,5.8A2.9,2.9,0,1,1,2.9,0" transform="translate(1.7 0.942)" fill="none" stroke="#8693a7" stroke-linecap="round" stroke-linejoin="round" stroke-miterlimit="10" stroke-width="1.8"/>
      <path id="Stroke_7" data-name="Stroke 7" d="M3.268,0A9.435,9.435,0,0,0,1.845.206a2.334,2.334,0,0,0-1.711.978,1.375,1.375,0,0,0,0,1.184,2.358,2.358,0,0,0,1.711.984" transform="translate(0 9.897)" fill="none" stroke="#8693a7" stroke-linecap="round" stroke-linejoin="round" stroke-miterlimit="10" stroke-width="1.8"/>
      <path id="Stroke_9" data-name="Stroke 9" d="M6.021,0c3.247,0,6.021.491,6.021,2.458S9.286,4.933,6.021,4.933C2.773,4.933,0,4.441,0,2.475S2.756,0,6.021,0Z" transform="translate(4.229 10.522)" fill="none" stroke="#8693a7" stroke-linecap="round" stroke-linejoin="round" stroke-miterlimit="10" stroke-width="1.8"/>
      <path id="Stroke_11" data-name="Stroke 11" d="M3.858,7.717A3.859,3.859,0,1,1,7.716,3.858,3.845,3.845,0,0,1,3.858,7.717Z" transform="translate(6.392)" fill="none" stroke="#8693a7" stroke-linecap="round" stroke-linejoin="round" stroke-miterlimit="10" stroke-width="1.8"/>
    </g>
  </g>
</svg>
