<svg id="Piggy_bank_1_" xmlns="http://www.w3.org/2000/svg" xmlns:xlink="http://www.w3.org/1999/xlink" width="27.222" height="20.479" viewBox="0 0 27.222 20.479">
  <defs>
    <linearGradient id="linear-gradient" x1="0.5" x2="0.5" y2="1" gradientUnits="objectBoundingBox">
      <stop offset="0" stop-color="#8755ff"/>
      <stop offset="1" stop-color="#6f32ff"/>
    </linearGradient>
    <linearGradient id="linear-gradient-2" y1="1" y2="0" xlink:href="#linear-gradient"/>
  </defs>
  <g id="Grupo_2692" data-name="Grupo 2692" transform="translate(0 9.126) rotate(-69)">
    <path id="Trazado_6744" data-name="Trazado 6744" d="M3.938,7.877a.808.808,0,0,0,.811-.788A.767.767,0,0,0,3.986,6.3,2.376,2.376,0,0,1,1.575,3.938,2.414,2.414,0,0,1,3.982,1.577.844.844,0,0,0,4.831.834.737.737,0,0,0,4.15.006L3.938,0a3.938,3.938,0,1,0,0,7.877Z" transform="translate(0 0)" fill="url(#linear-gradient)"/>
  </g>
  <g id="Grupo_2693" data-name="Grupo 2693" transform="translate(3.487)">
    <path id="Trazado_6745" data-name="Trazado 6745" d="M3.938,142.479H7.089a.787.787,0,0,0,.788-.788v-.865a16.649,16.649,0,0,0,6.3-.04v.9a.787.787,0,0,0,.788.788h3.151a.787.787,0,0,0,.788-.788v-2.848a7.581,7.581,0,0,0,2.387-2.666h1.656a.787.787,0,0,0,.788-.788v-4.726a.787.787,0,0,0-.788-.788H21.321A7.466,7.466,0,0,0,18.9,127.13v-4.342a.787.787,0,0,0-.788-.788,5.51,5.51,0,0,0-4.924,3.072c-4.037-.509-8.156.491-10.65,2.608A6.856,6.856,0,0,0,0,133.027a7,7,0,0,0,3.151,5.9v2.767A.787.787,0,0,0,3.938,142.479Z" transform="translate(0 -122)" fill="url(#linear-gradient-2)"/>
  </g>
  <g id="Grupo_2695" data-name="Grupo 2695" transform="translate(9.788 6.104)">
    <g id="Grupo_2694" data-name="Grupo 2694">
      <path id="Trazado_6746" data-name="Trazado 6746" d="M122.517,21.707a13.116,13.116,0,0,1,6.7-.533.787.787,0,0,1,.649.9.778.778,0,0,1-.9.649,12.615,12.615,0,0,0-6.174.507.788.788,0,0,1-.271-1.528Zm9.723,1.036a.788.788,0,1,1-.788.788A.788.788,0,0,1,132.24,22.743Z" transform="translate(-122 -20.97)" fill="#fff"/>
    </g>
  </g>
</svg>
