<svg xmlns="http://www.w3.org/2000/svg" width="28.475" height="31.638" viewBox="0 0 28.475 31.638">
  <path id="Trazado_391" data-name="Trazado 391" d="M31.185,16.531a14.143,14.143,0,0,0-.83-2.67,14.415,14.415,0,0,0-1.313-2.422,14.169,14.169,0,0,0-1.737-2.1A14.182,14.182,0,0,0,22.78,6.284,14.054,14.054,0,0,0,17.2,5.167V2L10.909,6.746,17.2,11.491V8.331a11.035,11.035,0,0,1,7.87,3.243,11.07,11.07,0,0,1,3.018,5.6,11.064,11.064,0,0,1-1.664,8.422,11.391,11.391,0,0,1-1.357,1.644,10.945,10.945,0,0,1-1.639,1.351,11.055,11.055,0,0,1-3.955,1.666,11.28,11.28,0,0,1-4.464,0,11.013,11.013,0,0,1-2.079-.647A11.07,11.07,0,0,1,9.41,27.233a11.3,11.3,0,0,1-1.353-1.639A11.034,11.034,0,0,1,6.164,19.4H3A14.213,14.213,0,0,0,7.17,29.466,14.218,14.218,0,0,0,9.275,31.2a14.207,14.207,0,0,0,5.094,2.145,14.4,14.4,0,0,0,5.738,0A14.215,14.215,0,0,0,25.2,31.2,14.057,14.057,0,0,0,27.3,29.466a14.212,14.212,0,0,0,3.051-4.524,14.217,14.217,0,0,0,1.12-5.541A14.38,14.38,0,0,0,31.185,16.531Z" transform="translate(-3 -2)" fill="#fff"/>
</svg>
