<svg xmlns="http://www.w3.org/2000/svg" width="27.535" height="25.05" viewBox="0 0 27.535 25.05">
  <path id="Unión_2" data-name="Unión 2" d="M3.795.031A3.535,3.535,0,0,0,0,3.785H0v.137s0,.008,0,.012,0,.008,0,.013v.119c0,1.1,0,5.122,0,6.006v.172a3.538,3.538,0,0,0,3.795,3.784L17.5,14a3.534,3.534,0,0,0,3.791-3.753v-.015s0,0,0,0v-.064c0-.679,0-5.3,0-6.216V3.932c0-.012,0-.024,0-.035V3.785h0A3.538,3.538,0,0,0,17.5,0Z" transform="translate(26.506 13.054) rotate(149)" fill="rgba(0,0,0,0)" stroke="#1e1e36" stroke-linecap="round" stroke-linejoin="round" stroke-miterlimit="10" stroke-width="1.5"/>
</svg>
