<svg xmlns="http://www.w3.org/2000/svg" width="27.896" height="25.266" viewBox="0 0 27.896 25.266">
  <path id="Unión_3" data-name="Unión 3" d="M3.87.031A3.571,3.571,0,0,0,0,3.785H0v.137s0,.008,0,.012,0,.008,0,.013v.119c0,1.1,0,5.122,0,6.006v.172a3.573,3.573,0,0,0,3.87,3.784L17.843,14a3.57,3.57,0,0,0,3.866-3.753v-.015s0,0,0,0v-.064c0-.679,0-5.3,0-6.216V3.932c0-.012,0-.024,0-.035V3.785h0A3.574,3.574,0,0,0,17.843,0Z" transform="translate(26.866 13.054) rotate(149)" fill="#fff" stroke="#1e1e36" stroke-linecap="round" stroke-linejoin="round" stroke-miterlimit="10" stroke-width="1.5"/>
</svg>
