<svg xmlns="http://www.w3.org/2000/svg" width="15" height="22" viewBox="0 0 15 22">
  <g id="_Icon_-_L" data-name="💚 Icon - L" transform="translate(-6 -2)">
    <path id="mobile-android" d="M11.785,22H3.214A3.261,3.261,0,0,1,0,18.7V3.3A3.261,3.261,0,0,1,3.214,0h8.571A3.262,3.262,0,0,1,15,3.3V18.7A3.262,3.262,0,0,1,11.785,22ZM3.214,2.2A1.087,1.087,0,0,0,2.143,3.3V18.7a1.087,1.087,0,0,0,1.071,1.1h8.571a1.087,1.087,0,0,0,1.071-1.1V3.3a1.087,1.087,0,0,0-1.071-1.1ZM7.5,17.582a1.052,1.052,0,0,1-.761-.325,1.118,1.118,0,0,1-.229-1.2,1.267,1.267,0,0,1,.225-.362,1.048,1.048,0,0,1,.975-.3l.193.087a.834.834,0,0,1,.193.1l.161.133a1.1,1.1,0,0,1,.225.341,1.118,1.118,0,0,1-.225,1.2,1.586,1.586,0,0,1-.354.243A1.038,1.038,0,0,1,7.5,17.582Z" transform="translate(6 2)" fill="#323253"/>
  </g>
</svg>
