<svg xmlns="http://www.w3.org/2000/svg" xmlns:xlink="http://www.w3.org/1999/xlink" width="410.541" height="248.44" viewBox="0 0 410.541 248.44">
  <defs>
    <linearGradient id="linear-gradient" x1="0.5" x2="0.5" y2="1" gradientUnits="objectBoundingBox">
      <stop offset="0" stop-color="#ff3752"/>
      <stop offset="1" stop-color="#f19"/>
    </linearGradient>
  </defs>
  <g id="Grupo_3354" data-name="Grupo 3354" transform="translate(-92.395 -270.071)">
    <g id="Grupo_5" data-name="Grupo 5" transform="translate(92.395 270.071)">
      <path id="Intersección_2" data-name="Intersección 2" d="M78.556,0c71.809,0,81.3,16.45,81.3,81.139,0,34.414-3.916,55.012-17.823,66.668-5.617,4.708-12.557,7.879-21.449,9.94-33.286,9.514-101.649,18.478-101.649,18.478L49.4,151.332C18.215,143.7,0,128.785,0,80.557,0,40.265,2.516,19.135,20.872,8.793,32.548,2.214,50.636,0,78.556,0Z" transform="translate(54.71 45.937)" fill="#ffe817"/>
      <path id="Intersección_3" data-name="Intersección 3" d="M82.155,0c71.485,0,78.821,24.166,78.822,88.855,0,33.6-6.222,48.978-19.4,60.535C137.174,161.381,33.2,183.746,33.2,183.746L43.938,168.4l12.886-13.574a24.638,24.638,0,0,0-4.18-3.029c-6.67-3.765-19.874,6.055-24.786,0C7.147,142.968,0,108.172,0,80.557c0-39.4,3.811-60.482,22.143-71.065C34.482,2.369,53.4,0,82.155,0Z" transform="translate(50.195 36.388)" fill="#34ffde"/>
      <path id="Unión_1" data-name="Unión 1" d="M49.307,155.7C-9.851,121.547-10.949,103.056,20.572,48.46,41.894,11.528,57.548-3.538,82.961.692c31.1,3.89,108.447,29.583,108.447,29.583l-35.761,7.832c29.01,23.347,26.591,44.364.9,88.859-19.306,33.438-32.772,49.4-53.289,49.4C89.639,176.364,72.91,169.329,49.307,155.7Z" transform="translate(253.947 152.737) rotate(150)" fill="url(#linear-gradient)"/>
      <g id="Layer_2" data-name="Layer 2" transform="translate(79.916 84.626)">
        <g id="Capa_1" data-name="Capa 1" transform="translate(0 0)">
          <path id="Trazado_3" data-name="Trazado 3" d="M0,0H71.939a33.1,33.1,0,0,1,33.1,33.1H33.1A33.1,33.1,0,0,1,0,0Z" transform="translate(0 0)" fill="#fff"/>
          <path id="Trazado_4" data-name="Trazado 4" d="M80.1,68h42.017a33.1,33.1,0,0,1-33.1,33.1H47A33.1,33.1,0,0,1,80.1,68Z" transform="translate(-17.079 -24.709)" fill="#fff"/>
        </g>
      </g>
    </g>
    <g id="Grupo_1" data-name="Grupo 1" transform="translate(325.648 312.688)">
      <path id="Trazado_2695" data-name="Trazado 2695" d="M244.844,46.92l-18.02,102.319H190.86L208.931,46.92ZM213.928,10.892a23,23,0,0,1,8.844-7.758A27.056,27.056,0,0,1,235.361.221q8.384,0,13.189,4.192A13.931,13.931,0,0,1,253.3,15.365a19.17,19.17,0,0,1-3.195,10.569,22.264,22.264,0,0,1-8.755,7.758,27.287,27.287,0,0,1-12.5,2.824q-8.575,0-13.317-4.192A13.739,13.739,0,0,1,210.8,21.564a18.888,18.888,0,0,1,3.131-10.672Z" transform="translate(-190.86 -0.218)" fill="#323253"/>
      <path id="Trazado_2696" data-name="Trazado 2696" d="M355.22,36.766,337.161,139.085H301.223l2.927-16.96a43.963,43.963,0,0,1-15.234,13.036A43.007,43.007,0,0,1,268.57,140q-14.761,0-23-8.576t-8.2-23.9a64.443,64.443,0,0,1,1.1-11.5l10.569-59.275H284.6l-9.662,54.891a22.173,22.173,0,0,0-.371,4.563q0,6.748,3.745,10.493t10.493,3.732a19.375,19.375,0,0,0,13.585-5.112q5.559-5.112,7.208-14.416v.92l9.662-55.083Z" transform="translate(-177.932 9.936)" fill="#323253"/>
    </g>
  </g>
</svg>
