<svg xmlns="http://www.w3.org/2000/svg" width="18.879" height="19.854" viewBox="0 0 18.879 19.854">
  <g id="Bag" transform="translate(0.151 0.15)">
    <path id="Bag-2" data-name="Bag" d="M5.326,19.554c-2.022,0-3.488-.512-4.357-1.521S-.185,15.5.116,13.5L.86,7.765A4.613,4.613,0,0,1,2.169,5.2a3.316,3.316,0,0,1,2.306-.912h0a4.821,4.821,0,0,1,9.582,0h.07c1.756,0,3.144,1.349,3.623,3.52l.768,5.931a5.271,5.271,0,0,1-1.06,4.232,5.447,5.447,0,0,1-4.216,1.587ZM2.264,7.985,1.525,13.7c-.241,1.6-.067,2.715.534,3.414s1.64,1.025,3.267,1.025h7.917a4,4,0,0,0,3.167-1.132,4.033,4.033,0,0,0,.668-3.321l-.727-5.639C16.026,6.578,15.195,5.7,14.128,5.7H4.476C3.359,5.7,2.532,6.554,2.264,7.985Zm10.361-3.7a3.4,3.4,0,0,0-6.715,0Zm-.58,5.457a.707.707,0,0,1-.1-1.409l.1-.006h.043a.707.707,0,0,1,.1,1.409l-.1.006Zm-5.529,0a.707.707,0,0,1-.1-1.409l.1-.006h.043a.707.707,0,0,1,.1,1.409l-.1.006Z" transform="translate(0 0)" fill="#acb8c7" stroke="#acb8c7" stroke-width="0.3"/>
  </g>
</svg>
