<svg xmlns="http://www.w3.org/2000/svg" width="24.167" height="24.167" viewBox="0 0 24.167 24.167">
  <g id="Iconly_Bold_Chat" data-name="Iconly/Bold/Chat" transform="translate(-1.934 -1.933)">
    <g id="Chat" transform="translate(1.933 1.933)">
      <path id="Chat-2" data-name="Chat" d="M12.083,24.167a12.029,12.029,0,0,1-5.945-1.573A2.656,2.656,0,0,0,4.8,22.082a1.466,1.466,0,0,0-.462.076L1.9,22.884a.911.911,0,0,1-.273.043.749.749,0,0,1-.6-.289.782.782,0,0,1-.113-.7l.81-2.711a1.264,1.264,0,0,0-.085-1.089A12.768,12.768,0,0,1,0,12.1,12.274,12.274,0,0,1,3.421,3.664,11.95,11.95,0,0,1,12.107,0a11.921,11.921,0,0,1,8.6,3.618,12.153,12.153,0,0,1,2.537,3.846,11.95,11.95,0,0,1,.919,4.6,12.251,12.251,0,0,1-1.045,5.041,11.6,11.6,0,0,1-2.749,3.81A12.379,12.379,0,0,1,12.083,24.167Zm5.546-13.6a1.549,1.549,0,1,0,1.546,1.549A1.549,1.549,0,0,0,17.63,10.565Zm-5.593,0A1.532,1.532,0,0,0,10.513,12.1a1.546,1.546,0,1,0,1.546-1.537h-.023Zm-5.547,0a1.549,1.549,0,1,0,1.546,1.549A1.55,1.55,0,0,0,6.489,10.565Z" transform="translate(0 0)" fill="#fff"/>
    </g>
  </g>
</svg>
