<svg xmlns="http://www.w3.org/2000/svg" width="17" height="20" viewBox="0 0 17 20">
  <g id="Iconly_Bold_Bag" data-name="Iconly/Bold/Bag" transform="translate(-3 -2)">
    <g id="Bag" transform="translate(2.88 1.92)">
      <path id="Combined_Shape" data-name="Combined Shape" d="M12.428,20H4.6A4.55,4.55,0,0,1,.86,18.662C.087,17.72-.161,16.3.1,14.315L.835,8.12A4.172,4.172,0,0,1,1.962,5.708,2.5,2.5,0,0,1,3.714,5h.073a.719.719,0,0,1,0-.226A4.833,4.833,0,0,1,8.5,0a4.834,4.834,0,0,1,4.718,4.775H13.2A.544.544,0,0,1,13.156,5H13.3a2.446,2.446,0,0,1,1.725.731A4.478,4.478,0,0,1,16.191,8.12l.727,6.195a5.367,5.367,0,0,1-.856,4.23A4.506,4.506,0,0,1,12.428,20Zm-1.2-11.67a.913.913,0,1,0,.835.909A.875.875,0,0,0,11.225,8.33Zm-5.467,0a.913.913,0,0,0,0,1.819.913.913,0,0,0,0-1.819ZM8.468,1.3a3.389,3.389,0,0,0-3.29,3.472.67.67,0,0,1,0,.226H11.8a.687.687,0,0,1-.041-.226A3.389,3.389,0,0,0,8.468,1.3Z" transform="translate(0.12 0.08)" fill="#323253"/>
    </g>
  </g>
</svg>
